<?xml version="1.0" encoding="UTF-8"?>
<svg xmlns="http://www.w3.org/2000/svg" xmlns:xlink="http://www.w3.org/1999/xlink" width="160px" height="40px" viewBox="0 0 133 40" version="1.1">
<defs>
<clipPath id="clip1">
  <path d="M 14 8.597656 L 37 8.597656 L 37 31.402344 L 14 31.402344 Z M 14 8.597656 "/>
</clipPath>
<clipPath id="clip2">
  <path d="M 22 8.597656 L 44.929688 8.597656 L 44.929688 31.402344 L 22 31.402344 Z M 22 8.597656 "/>
</clipPath>
<clipPath id="clip3">
  <path d="M 5.277344 8.597656 L 29 8.597656 L 29 31.402344 L 5.277344 31.402344 Z M 5.277344 8.597656 "/>
</clipPath>
<linearGradient id="linear0" gradientUnits="userSpaceOnUse" x1="0" y1="0" x2="1" y2="1" gradientTransform="matrix(75.453125,0,0,14.511719,51.183594,12.8125)">
<stop offset="0" style="stop-color:rgb(31.764706%,65.882353%,85.882353%);stop-opacity:1;"/>
<stop offset="1" style="stop-color:rgb(20%,38.039216%,88.235294%);stop-opacity:1;"/>
</linearGradient>
</defs>
<g id="surface1">
<g clip-path="url(#clip1)" clip-rule="nonzero">
<path style=" stroke:none;fill-rule:nonzero;fill:rgb(31.372549%,24.313725%,88.235294%);fill-opacity:1;" d="M 34.714844 22.578125 L 35.21875 22.074219 C 36.363281 20.929688 36.363281 19.070312 35.21875 17.929688 L 34.714844 17.425781 L 35.851562 16.289062 C 36.164062 15.972656 36.164062 15.464844 35.851562 15.152344 C 35.539062 14.839844 35.03125 14.839844 34.71875 15.152344 L 33.585938 16.289062 L 32.746094 15.449219 L 33.878906 14.3125 C 34.191406 13.996094 34.191406 13.488281 33.878906 13.175781 C 33.566406 12.863281 33.0625 12.863281 32.75 13.175781 L 31.613281 14.3125 L 30.773438 13.472656 L 31.910156 12.335938 C 32.222656 12.023438 32.222656 11.515625 31.910156 11.199219 C 31.597656 10.886719 31.089844 10.886719 30.777344 11.199219 L 29.644531 12.339844 L 28.804688 11.496094 L 29.9375 10.359375 C 30.25 10.046875 30.25 9.539062 29.9375 9.226562 C 29.625 8.910156 29.121094 8.910156 28.804688 9.226562 L 27.671875 10.363281 L 27.167969 9.855469 C 26.027344 8.710938 24.175781 8.710938 23.035156 9.855469 L 22.53125 10.363281 L 21.398438 9.226562 C 21.085938 8.910156 20.578125 8.910156 20.265625 9.226562 C 19.953125 9.539062 19.953125 10.046875 20.265625 10.359375 L 21.398438 11.496094 L 20.558594 12.339844 L 19.425781 11.199219 C 19.113281 10.886719 18.605469 10.886719 18.292969 11.199219 C 17.980469 11.515625 17.980469 12.023438 18.292969 12.335938 L 19.429688 13.472656 L 18.589844 14.3125 L 17.457031 13.175781 C 17.140625 12.863281 16.636719 12.863281 16.324219 13.175781 C 16.011719 13.488281 16.011719 13.996094 16.324219 14.3125 L 17.457031 15.449219 L 16.617188 16.289062 L 15.484375 15.152344 C 15.171875 14.839844 14.664062 14.839844 14.351562 15.152344 C 14.039062 15.464844 14.039062 15.972656 14.351562 16.289062 L 15.488281 17.425781 L 14.984375 17.929688 C 13.839844 19.074219 13.839844 20.929688 14.984375 22.074219 L 15.488281 22.578125 L 14.351562 23.714844 C 14.039062 24.027344 14.039062 24.535156 14.351562 24.851562 C 14.664062 25.164062 15.171875 25.164062 15.484375 24.851562 L 16.617188 23.710938 L 17.457031 24.554688 L 16.324219 25.691406 C 16.011719 26.003906 16.011719 26.511719 16.324219 26.824219 C 16.636719 27.140625 17.140625 27.140625 17.457031 26.824219 L 18.589844 25.6875 L 19.429688 26.53125 L 18.292969 27.667969 C 17.980469 27.980469 17.980469 28.488281 18.292969 28.800781 C 18.605469 29.117188 19.113281 29.117188 19.425781 28.800781 L 20.558594 27.664062 L 21.398438 28.503906 L 20.265625 29.644531 C 19.953125 29.957031 19.953125 30.464844 20.265625 30.777344 C 20.578125 31.089844 21.085938 31.089844 21.398438 30.777344 L 22.53125 29.640625 L 23.035156 30.144531 C 24.175781 31.289062 26.027344 31.289062 27.167969 30.144531 L 27.671875 29.640625 L 28.804688 30.777344 C 29.121094 31.089844 29.625 31.089844 29.9375 30.777344 C 30.25 30.464844 30.25 29.957031 29.9375 29.644531 L 28.804688 28.503906 L 29.644531 27.664062 L 30.777344 28.800781 C 31.089844 29.117188 31.597656 29.117188 31.910156 28.800781 C 32.222656 28.488281 32.222656 27.980469 31.910156 27.667969 L 30.773438 26.53125 L 31.613281 25.6875 L 32.75 26.824219 C 33.0625 27.140625 33.566406 27.140625 33.878906 26.824219 C 34.191406 26.511719 34.191406 26.003906 33.878906 25.691406 L 32.746094 24.554688 L 33.585938 23.710938 L 34.71875 24.851562 C 35.03125 25.164062 35.539062 25.164062 35.851562 24.851562 C 36.164062 24.535156 36.164062 24.027344 35.851562 23.714844 Z M 34.714844 22.578125 "/>
</g>
<g clip-path="url(#clip2)" clip-rule="nonzero">
<path style=" stroke:none;fill-rule:nonzero;fill:rgb(28.627451%,46.27451%,94.901961%);fill-opacity:1;" d="M 44.046875 22.148438 L 35.699219 30.515625 C 34.515625 31.699219 32.597656 31.699219 31.414062 30.515625 L 23.070312 22.148438 C 21.886719 20.960938 21.886719 19.035156 23.070312 17.851562 L 31.414062 9.484375 C 32.597656 8.300781 34.519531 8.300781 35.699219 9.484375 L 44.046875 17.851562 C 45.226562 19.035156 45.226562 20.960938 44.046875 22.148438 Z M 44.046875 22.148438 "/>
</g>
<path style=" stroke:none;fill-rule:nonzero;fill:rgb(23.921569%,91.372549%,94.901961%);fill-opacity:1;" d="M 35.847656 15.148438 C 35.535156 14.835938 35.03125 14.835938 34.714844 15.148438 L 33.582031 16.289062 L 32.742188 15.445312 L 33.878906 14.308594 C 34.191406 13.996094 34.191406 13.488281 33.878906 13.175781 C 33.566406 12.859375 33.058594 12.859375 32.746094 13.175781 L 31.613281 14.3125 L 30.773438 13.46875 L 31.90625 12.332031 C 32.21875 12.019531 32.21875 11.511719 31.90625 11.199219 C 31.59375 10.882812 31.085938 10.882812 30.773438 11.199219 L 29.640625 12.335938 L 29.105469 11.796875 L 23.066406 17.851562 C 21.882812 19.039062 21.882812 20.964844 23.066406 22.148438 L 29.105469 28.203125 L 29.640625 27.664062 L 30.773438 28.800781 C 31.085938 29.117188 31.59375 29.117188 31.90625 28.800781 C 32.21875 28.488281 32.21875 27.980469 31.90625 27.667969 L 30.773438 26.53125 L 31.613281 25.6875 L 32.746094 26.824219 C 33.058594 27.140625 33.566406 27.140625 33.878906 26.824219 C 34.191406 26.511719 34.191406 26.003906 33.878906 25.691406 L 32.742188 24.554688 L 33.582031 23.710938 L 34.714844 24.851562 C 35.03125 25.164062 35.535156 25.164062 35.847656 24.851562 C 36.160156 24.535156 36.160156 24.027344 35.847656 23.714844 L 34.714844 22.578125 L 35.21875 22.074219 C 36.359375 20.929688 36.359375 19.070312 35.21875 17.929688 L 34.714844 17.425781 L 35.847656 16.289062 C 36.160156 15.972656 36.160156 15.464844 35.847656 15.148438 Z M 35.847656 15.148438 "/>
<g clip-path="url(#clip3)" clip-rule="nonzero">
<path style=" stroke:none;fill-rule:nonzero;fill:rgb(91.764706%,36.862745%,63.137255%);fill-opacity:1;" d="M 27.140625 22.148438 L 18.796875 30.515625 C 17.613281 31.699219 15.691406 31.699219 14.511719 30.515625 L 6.164062 22.148438 C 4.980469 20.960938 4.980469 19.035156 6.164062 17.851562 L 14.511719 9.484375 C 15.695312 8.300781 17.613281 8.300781 18.796875 9.484375 L 27.140625 17.851562 C 28.324219 19.035156 28.324219 20.960938 27.140625 22.148438 Z M 27.140625 22.148438 "/>
</g>
<path style=" stroke:none;fill-rule:nonzero;fill:rgb(100%,59.215686%,97.254902%);fill-opacity:1;" d="M 27.140625 17.851562 L 21.101562 11.796875 L 20.5625 12.339844 L 19.429688 11.199219 C 19.117188 10.886719 18.609375 10.886719 18.296875 11.199219 C 17.984375 11.515625 17.984375 12.023438 18.296875 12.335938 L 19.429688 13.472656 L 18.59375 14.3125 L 17.457031 13.175781 C 17.144531 12.863281 16.636719 12.863281 16.324219 13.175781 C 16.011719 13.488281 16.011719 13.996094 16.324219 14.3125 L 17.460938 15.449219 L 16.621094 16.289062 L 15.488281 15.152344 C 15.175781 14.839844 14.667969 14.839844 14.355469 15.152344 C 14.042969 15.464844 14.042969 15.972656 14.355469 16.289062 L 15.488281 17.425781 L 14.984375 17.929688 C 13.84375 19.074219 13.84375 20.929688 14.984375 22.074219 L 15.488281 22.578125 L 14.355469 23.714844 C 14.042969 24.027344 14.042969 24.535156 14.355469 24.851562 C 14.667969 25.164062 15.175781 25.164062 15.488281 24.851562 L 16.621094 23.710938 L 17.460938 24.554688 L 16.324219 25.691406 C 16.011719 26.003906 16.011719 26.511719 16.324219 26.824219 C 16.636719 27.140625 17.144531 27.140625 17.457031 26.824219 L 18.59375 25.6875 L 19.429688 26.53125 L 18.296875 27.667969 C 17.984375 27.980469 17.984375 28.488281 18.296875 28.800781 C 18.609375 29.117188 19.117188 29.117188 19.429688 28.800781 L 20.5625 27.664062 L 21.101562 28.203125 L 27.140625 22.148438 C 28.324219 20.960938 28.324219 19.035156 27.140625 17.851562 Z M 27.140625 17.851562 "/>
<path style=" stroke:none;fill-rule:nonzero;fill:rgb(100%,100%,100%);fill-opacity:1;" d="M 27.140625 17.851562 L 25.105469 15.8125 L 23.070312 17.851562 C 21.886719 19.039062 21.886719 20.964844 23.070312 22.148438 L 25.105469 24.1875 L 27.140625 22.148438 C 28.324219 20.960938 28.324219 19.035156 27.140625 17.851562 Z M 27.140625 17.851562 "/>
<path style=" stroke:none;fill-rule:nonzero;fill:rgb(3.529412%,1.176471%,21.960784%);fill-opacity:1;" d="M 25.136719 29.675781 C 24.542969 29.675781 23.949219 29.449219 23.5 28.996094 L 16.160156 21.640625 C 15.726562 21.203125 15.484375 20.621094 15.484375 20 C 15.484375 19.378906 15.726562 18.796875 16.160156 18.359375 L 23.5 11.003906 C 24.402344 10.101562 25.871094 10.097656 26.773438 11.003906 L 34.109375 18.359375 C 34.546875 18.796875 34.789062 19.378906 34.789062 20 C 34.789062 20.621094 34.546875 21.203125 34.109375 21.640625 L 26.773438 28.996094 C 26.320312 29.449219 25.730469 29.675781 25.136719 29.675781 Z M 25.136719 10.84375 C 24.675781 10.84375 24.214844 11.019531 23.863281 11.371094 L 16.527344 18.726562 C 16.1875 19.066406 16 19.515625 16 19.996094 C 16 20.476562 16.1875 20.929688 16.527344 21.269531 L 23.863281 28.625 C 24.5625 29.328125 25.703125 29.328125 26.402344 28.625 L 33.742188 21.269531 C 34.082031 20.929688 34.265625 20.476562 34.265625 19.996094 C 34.265625 19.515625 34.082031 19.0625 33.742188 18.726562 L 26.402344 11.371094 C 26.054688 11.019531 25.597656 10.84375 25.136719 10.84375 Z M 25.136719 10.84375 "/>
<path style=" stroke:none;fill-rule:nonzero;fill:url(#linear0);" d="M 63.839844 27.1875 L 60.042969 27.1875 L 54.984375 19.535156 L 54.984375 27.1875 L 51.183594 27.1875 L 51.183594 13.492188 L 54.984375 13.492188 L 60.042969 21.242188 L 60.042969 13.492188 L 63.839844 13.492188 L 63.839844 27.1875 M 76.34375 22.507812 L 69.152344 22.507812 C 69.191406 23.101562 69.355469 23.546875 69.644531 23.835938 C 69.9375 24.128906 70.308594 24.273438 70.761719 24.273438 C 71.394531 24.273438 71.847656 23.988281 72.117188 23.417969 L 76.167969 23.417969 C 76 24.171875 75.671875 24.839844 75.1875 25.429688 C 74.703125 26.019531 74.09375 26.484375 73.359375 26.820312 C 72.621094 27.15625 71.808594 27.324219 70.914062 27.324219 C 69.84375 27.324219 68.890625 27.097656 68.058594 26.644531 C 67.222656 26.191406 66.570312 25.542969 66.097656 24.703125 C 65.628906 23.859375 65.390625 22.871094 65.390625 21.730469 C 65.390625 20.589844 65.625 19.601562 66.089844 18.765625 C 66.554688 17.929688 67.203125 17.285156 68.039062 16.832031 C 68.871094 16.378906 69.828125 16.152344 70.914062 16.152344 C 71.988281 16.152344 72.9375 16.375 73.765625 16.8125 C 74.589844 17.253906 75.238281 17.886719 75.703125 18.707031 C 76.167969 19.53125 76.398438 20.5 76.398438 21.613281 C 76.398438 21.910156 76.382812 22.207031 76.34375 22.507812 M 72.523438 20.660156 C 72.523438 20.195312 72.367188 19.828125 72.058594 19.5625 C 71.75 19.296875 71.359375 19.164062 70.894531 19.164062 C 70.429688 19.164062 70.050781 19.289062 69.753906 19.542969 C 69.457031 19.796875 69.261719 20.167969 69.171875 20.660156 L 72.523438 20.660156 M 84.734375 27.1875 L 82.777344 24.449219 L 81.226562 27.1875 L 77.058594 27.1875 L 80.683594 21.535156 L 76.90625 16.289062 L 81.167969 16.289062 L 83.125 19.027344 L 84.695312 16.289062 L 88.863281 16.289062 L 85.160156 21.847656 L 89 27.1875 L 84.734375 27.1875 M 100.347656 20.320312 C 99.964844 21 99.390625 21.542969 98.621094 21.953125 C 97.851562 22.359375 96.914062 22.566406 95.800781 22.566406 L 93.921875 22.566406 L 93.921875 27.1875 L 90.121094 27.1875 L 90.121094 13.492188 L 95.800781 13.492188 C 96.898438 13.492188 97.832031 13.683594 98.601562 14.074219 C 99.371094 14.460938 99.949219 15 100.335938 15.6875 C 100.722656 16.375 100.917969 17.164062 100.917969 18.058594 C 100.917969 18.886719 100.726562 19.640625 100.347656 20.320312 M 97.042969 18.058594 C 97.042969 17.058594 96.503906 16.5625 95.433594 16.5625 L 93.921875 16.5625 L 93.921875 19.535156 L 95.433594 19.535156 C 96.503906 19.535156 97.042969 19.042969 97.042969 18.058594 M 102.4375 18.777344 C 102.847656 17.933594 103.402344 17.285156 104.105469 16.832031 C 104.808594 16.378906 105.59375 16.152344 106.460938 16.152344 C 107.210938 16.152344 107.855469 16.300781 108.398438 16.601562 C 108.941406 16.898438 109.363281 17.300781 109.660156 17.804688 L 109.660156 16.289062 L 113.457031 16.289062 L 113.457031 27.1875 L 109.660156 27.1875 L 109.660156 25.671875 C 109.363281 26.179688 108.9375 26.582031 108.390625 26.878906 C 107.839844 27.175781 107.199219 27.324219 106.460938 27.324219 C 105.59375 27.324219 104.808594 27.097656 104.105469 26.644531 C 103.402344 26.191406 102.847656 25.539062 102.4375 24.691406 C 102.03125 23.84375 101.828125 22.855469 101.828125 21.730469 C 101.828125 20.601562 102.03125 19.617188 102.4375 18.777344 M 109.085938 20.078125 C 108.707031 19.675781 108.238281 19.476562 107.683594 19.476562 C 107.113281 19.476562 106.640625 19.671875 106.265625 20.066406 C 105.890625 20.464844 105.703125 21.015625 105.703125 21.730469 C 105.703125 22.429688 105.890625 22.984375 106.265625 23.390625 C 106.640625 23.796875 107.113281 24.003906 107.683594 24.003906 C 108.238281 24.003906 108.707031 23.800781 109.085938 23.398438 C 109.46875 23 109.660156 22.441406 109.660156 21.730469 C 109.660156 21.03125 109.46875 20.480469 109.085938 20.078125 M 115.617188 18.777344 C 116.027344 17.933594 116.585938 17.285156 117.296875 16.832031 C 118.003906 16.378906 118.792969 16.152344 119.660156 16.152344 C 120.355469 16.152344 120.980469 16.296875 121.53125 16.589844 C 122.078125 16.882812 122.507812 17.28125 122.820312 17.785156 L 122.820312 12.8125 L 126.636719 12.8125 L 126.636719 27.1875 L 122.820312 27.1875 L 122.820312 25.671875 C 122.519531 26.179688 122.101562 26.582031 121.558594 26.878906 C 121.015625 27.175781 120.375 27.324219 119.640625 27.324219 C 118.773438 27.324219 117.988281 27.097656 117.285156 26.644531 C 116.582031 26.191406 116.027344 25.539062 115.617188 24.691406 C 115.210938 23.84375 115.007812 22.855469 115.007812 21.730469 C 115.007812 20.601562 115.210938 19.617188 115.617188 18.777344 M 122.265625 20.078125 C 121.886719 19.675781 121.417969 19.476562 120.859375 19.476562 C 120.292969 19.476562 119.820312 19.671875 119.445312 20.066406 C 119.070312 20.464844 118.882812 21.015625 118.882812 21.730469 C 118.882812 22.429688 119.070312 22.984375 119.445312 23.390625 C 119.820312 23.796875 120.292969 24.003906 120.859375 24.003906 C 121.417969 24.003906 121.886719 23.800781 122.265625 23.398438 C 122.648438 23 122.839844 22.441406 122.839844 21.730469 C 122.839844 21.03125 122.648438 20.480469 122.265625 20.078125 "/>
</g>
</svg>
