<?xml version="1.0" encoding="UTF-8"?>
<svg xmlns="http://www.w3.org/2000/svg" xmlns:xlink="http://www.w3.org/1999/xlink" width="42px" height="34px" viewBox="0 0 45 34" version="1.1">
<defs>
<clipPath id="clip1">
  <path d="M 12 3.15625 L 33 3.15625 L 33 23.785156 L 12 23.785156 Z M 12 3.15625 "/>
</clipPath>
<clipPath id="clip2">
  <path d="M 19 3.15625 L 40.347656 3.15625 L 40.347656 23.785156 L 19 23.785156 Z M 19 3.15625 "/>
</clipPath>
<clipPath id="clip3">
  <path d="M 4.652344 3.15625 L 26 3.15625 L 26 23.785156 L 4.652344 23.785156 Z M 4.652344 3.15625 "/>
</clipPath>
<linearGradient id="linear0" gradientUnits="userSpaceOnUse" x1="0" y1="0" x2="1" y2="1" gradientTransform="matrix(29.28125,0,0,5.667969,7.859375,25.175781)">
<stop offset="0" style="stop-color:rgb(31.764706%,65.882353%,85.882353%);stop-opacity:1;"/>
<stop offset="1" style="stop-color:rgb(20%,38.039216%,88.235294%);stop-opacity:1;"/>
</linearGradient>
</defs>
<g id="surface1">
<g clip-path="url(#clip1)" clip-rule="nonzero">
<path style=" stroke:none;fill-rule:nonzero;fill:rgb(31.37255%,24.313726%,88.235295%);fill-opacity:1;" d="M 31.152344 15.800781 L 31.605469 15.34375 C 32.632812 14.308594 32.632812 12.628906 31.605469 11.597656 L 31.152344 11.140625 L 32.171875 10.113281 C 32.453125 9.828125 32.453125 9.371094 32.171875 9.085938 C 31.890625 8.800781 31.4375 8.800781 31.152344 9.085938 L 30.132812 10.113281 L 29.378906 9.355469 L 30.398438 8.324219 C 30.679688 8.042969 30.679688 7.582031 30.398438 7.296875 C 30.117188 7.015625 29.660156 7.015625 29.378906 7.296875 L 28.359375 8.328125 L 27.605469 7.566406 L 28.625 6.539062 C 28.90625 6.253906 28.90625 5.796875 28.625 5.511719 C 28.34375 5.226562 27.886719 5.226562 27.605469 5.511719 L 26.585938 6.539062 L 25.828125 5.777344 L 26.851562 4.75 C 27.132812 4.46875 27.132812 4.007812 26.851562 3.722656 C 26.570312 3.441406 26.113281 3.441406 25.832031 3.722656 L 24.8125 4.753906 L 24.359375 4.296875 C 23.328125 3.261719 21.664062 3.261719 20.636719 4.296875 L 20.183594 4.753906 L 19.164062 3.722656 C 18.882812 3.441406 18.425781 3.441406 18.144531 3.722656 C 17.863281 4.007812 17.863281 4.46875 18.144531 4.75 L 19.164062 5.777344 L 18.410156 6.539062 L 17.390625 5.511719 C 17.105469 5.226562 16.652344 5.226562 16.371094 5.511719 C 16.089844 5.796875 16.089844 6.253906 16.371094 6.539062 L 17.390625 7.566406 L 16.636719 8.328125 L 15.613281 7.296875 C 15.332031 7.015625 14.878906 7.015625 14.597656 7.296875 C 14.3125 7.582031 14.3125 8.042969 14.597656 8.324219 L 15.617188 9.355469 L 14.863281 10.113281 L 13.839844 9.085938 C 13.558594 8.800781 13.101562 8.800781 12.820312 9.085938 C 12.539062 9.371094 12.539062 9.828125 12.820312 10.113281 L 13.84375 11.140625 L 13.390625 11.597656 C 12.363281 12.632812 12.363281 14.3125 13.390625 15.34375 L 13.84375 15.800781 L 12.820312 16.832031 C 12.539062 17.113281 12.539062 17.574219 12.820312 17.855469 C 13.101562 18.140625 13.558594 18.140625 13.839844 17.855469 L 14.863281 16.828125 L 15.617188 17.589844 L 14.597656 18.617188 C 14.3125 18.902344 14.3125 19.359375 14.597656 19.644531 C 14.878906 19.929688 15.332031 19.929688 15.613281 19.644531 L 16.636719 18.617188 L 17.390625 19.375 L 16.371094 20.40625 C 16.089844 20.6875 16.089844 21.148438 16.371094 21.429688 C 16.652344 21.714844 17.105469 21.714844 17.390625 21.429688 L 18.410156 20.402344 L 19.164062 21.164062 L 18.144531 22.191406 C 17.863281 22.476562 17.863281 22.933594 18.144531 23.21875 C 18.425781 23.503906 18.882812 23.503906 19.164062 23.21875 L 20.183594 22.191406 L 20.636719 22.648438 C 21.664062 23.683594 23.332031 23.683594 24.359375 22.648438 L 24.8125 22.191406 L 25.832031 23.21875 C 26.113281 23.503906 26.570312 23.503906 26.851562 23.21875 C 27.132812 22.933594 27.132812 22.476562 26.851562 22.191406 L 25.828125 21.164062 L 26.585938 20.402344 L 27.605469 21.429688 C 27.886719 21.714844 28.34375 21.714844 28.625 21.429688 C 28.90625 21.148438 28.90625 20.6875 28.625 20.40625 L 27.605469 19.375 L 28.359375 18.617188 L 29.378906 19.644531 C 29.660156 19.929688 30.117188 19.929688 30.398438 19.644531 C 30.679688 19.359375 30.679688 18.902344 30.398438 18.617188 L 29.378906 17.589844 L 30.132812 16.828125 L 31.152344 17.855469 C 31.4375 18.140625 31.890625 18.140625 32.171875 17.855469 C 32.453125 17.574219 32.453125 17.113281 32.171875 16.832031 Z M 31.152344 15.800781 "/>
</g>
<g clip-path="url(#clip2)" clip-rule="nonzero">
<path style=" stroke:none;fill-rule:nonzero;fill:rgb(28.627452%,46.27451%,94.901961%);fill-opacity:1;" d="M 39.546875 15.414062 L 32.035156 22.980469 C 30.972656 24.054688 29.242188 24.054688 28.179688 22.980469 L 20.667969 15.414062 C 19.601562 14.339844 19.601562 12.597656 20.667969 11.527344 L 28.179688 3.960938 C 29.246094 2.886719 30.972656 2.886719 32.035156 3.960938 L 39.546875 11.527344 C 40.613281 12.597656 40.613281 14.339844 39.546875 15.414062 Z M 39.546875 15.414062 "/>
</g>
<path style=" stroke:none;fill-rule:nonzero;fill:rgb(23.921569%,91.37255%,94.901961%);fill-opacity:1;" d="M 32.171875 9.082031 C 31.890625 8.800781 31.433594 8.800781 31.152344 9.082031 L 30.132812 10.113281 L 29.375 9.351562 L 30.398438 8.324219 C 30.679688 8.039062 30.679688 7.578125 30.398438 7.296875 C 30.117188 7.011719 29.660156 7.011719 29.378906 7.296875 L 28.355469 8.324219 L 27.601562 7.5625 L 28.621094 6.535156 C 28.90625 6.25 28.90625 5.792969 28.621094 5.507812 C 28.339844 5.226562 27.886719 5.226562 27.605469 5.507812 L 26.582031 6.539062 L 26.101562 6.050781 L 20.664062 11.527344 C 19.597656 12.601562 19.597656 14.339844 20.664062 15.414062 L 26.101562 20.890625 L 26.582031 20.402344 L 27.605469 21.429688 C 27.886719 21.714844 28.339844 21.714844 28.621094 21.429688 C 28.90625 21.148438 28.90625 20.6875 28.621094 20.40625 L 27.601562 19.375 L 28.355469 18.617188 L 29.378906 19.644531 C 29.660156 19.929688 30.117188 19.929688 30.398438 19.644531 C 30.679688 19.359375 30.679688 18.902344 30.398438 18.617188 L 29.375 17.589844 L 30.132812 16.828125 L 31.152344 17.855469 C 31.433594 18.140625 31.890625 18.140625 32.171875 17.855469 C 32.453125 17.574219 32.453125 17.113281 32.171875 16.832031 L 31.148438 15.800781 L 31.601562 15.34375 C 32.632812 14.308594 32.632812 12.628906 31.601562 11.597656 L 31.148438 11.140625 L 32.171875 10.113281 C 32.453125 9.828125 32.453125 9.367188 32.171875 9.082031 Z M 32.171875 9.082031 "/>
<g clip-path="url(#clip3)" clip-rule="nonzero">
<path style=" stroke:none;fill-rule:nonzero;fill:rgb(91.764706%,36.862746%,63.137257%);fill-opacity:1;" d="M 24.332031 15.414062 L 16.820312 22.980469 C 15.753906 24.054688 14.027344 24.054688 12.964844 22.980469 L 5.453125 15.414062 C 4.386719 14.339844 4.386719 12.597656 5.453125 11.527344 L 12.964844 3.960938 C 14.03125 2.886719 15.757812 2.886719 16.820312 3.960938 L 24.332031 11.527344 C 25.394531 12.597656 25.394531 14.339844 24.332031 15.414062 Z M 24.332031 15.414062 "/>
</g>
<path style=" stroke:none;fill-rule:nonzero;fill:rgb(100%,59.215689%,97.254902%);fill-opacity:1;" d="M 24.332031 11.527344 L 18.898438 6.050781 L 18.410156 6.539062 L 17.390625 5.511719 C 17.109375 5.226562 16.652344 5.226562 16.371094 5.511719 C 16.089844 5.796875 16.089844 6.253906 16.371094 6.539062 L 17.394531 7.566406 L 16.636719 8.328125 L 15.617188 7.296875 C 15.335938 7.015625 14.878906 7.015625 14.597656 7.296875 C 14.316406 7.582031 14.316406 8.042969 14.597656 8.324219 L 15.621094 9.355469 L 14.863281 10.113281 L 13.84375 9.085938 C 13.5625 8.800781 13.105469 8.800781 12.824219 9.085938 C 12.542969 9.371094 12.542969 9.828125 12.824219 10.113281 L 13.84375 11.140625 L 13.390625 11.597656 C 12.363281 12.632812 12.363281 14.3125 13.390625 15.34375 L 13.84375 15.800781 L 12.824219 16.832031 C 12.542969 17.113281 12.542969 17.574219 12.824219 17.855469 C 13.105469 18.140625 13.5625 18.140625 13.84375 17.855469 L 14.863281 16.828125 L 15.621094 17.589844 L 14.597656 18.617188 C 14.316406 18.902344 14.316406 19.359375 14.597656 19.644531 C 14.878906 19.929688 15.335938 19.929688 15.617188 19.644531 L 16.636719 18.617188 L 17.394531 19.375 L 16.371094 20.40625 C 16.089844 20.6875 16.089844 21.148438 16.371094 21.429688 C 16.652344 21.714844 17.109375 21.714844 17.390625 21.429688 L 18.410156 20.402344 L 18.898438 20.890625 L 24.332031 15.414062 C 25.394531 14.339844 25.394531 12.597656 24.332031 11.527344 Z M 24.332031 11.527344 "/>
<path style=" stroke:none;fill-rule:nonzero;fill:rgb(100%,100%,100%);fill-opacity:1;" d="M 24.332031 11.527344 L 22.5 9.683594 L 20.667969 11.527344 C 19.601562 12.601562 19.601562 14.339844 20.667969 15.414062 L 22.5 17.257812 L 24.332031 15.414062 C 25.394531 14.339844 25.394531 12.597656 24.332031 11.527344 Z M 24.332031 11.527344 "/>
<path style=" stroke:none;fill-rule:nonzero;fill:rgb(3.529412%,1.176471%,21.960784%);fill-opacity:1;" d="M 22.527344 22.222656 C 21.992188 22.222656 21.460938 22.015625 21.054688 21.605469 L 14.449219 14.953125 C 14.058594 14.558594 13.839844 14.03125 13.839844 13.46875 C 13.839844 12.910156 14.058594 12.382812 14.449219 11.988281 L 21.054688 5.332031 C 21.867188 4.515625 23.1875 4.515625 24.003906 5.332031 L 30.605469 11.988281 C 31 12.382812 31.21875 12.910156 31.21875 13.46875 C 31.21875 14.03125 31 14.558594 30.605469 14.953125 L 24.003906 21.605469 C 23.59375 22.015625 23.0625 22.222656 22.527344 22.222656 Z M 22.527344 5.191406 C 22.113281 5.191406 21.699219 5.347656 21.382812 5.664062 L 14.777344 12.316406 C 14.472656 12.625 14.304688 13.035156 14.304688 13.46875 C 14.304688 13.902344 14.472656 14.3125 14.777344 14.617188 L 21.382812 21.273438 C 22.015625 21.90625 23.039062 21.90625 23.667969 21.273438 L 30.273438 14.617188 C 30.578125 14.308594 30.746094 13.902344 30.746094 13.46875 C 30.746094 13.035156 30.578125 12.625 30.273438 12.316406 L 23.667969 5.664062 C 23.355469 5.347656 22.941406 5.191406 22.527344 5.191406 Z M 22.527344 5.191406 "/>
<path style=" stroke:none;fill-rule:nonzero;fill:url(#linear0);" d="M 12.777344 30.792969 L 11.300781 30.792969 L 9.335938 27.800781 L 9.335938 30.792969 L 7.859375 30.792969 L 7.859375 25.441406 L 9.335938 25.441406 L 11.300781 28.46875 L 11.300781 25.441406 L 12.777344 25.441406 L 12.777344 30.792969 M 17.628906 28.964844 L 14.832031 28.964844 C 14.847656 29.195312 14.910156 29.367188 15.023438 29.484375 C 15.136719 29.597656 15.28125 29.652344 15.457031 29.652344 C 15.703125 29.652344 15.878906 29.542969 15.984375 29.320312 L 17.558594 29.320312 C 17.492188 29.613281 17.367188 29.875 17.179688 30.105469 C 16.992188 30.335938 16.753906 30.515625 16.46875 30.648438 C 16.179688 30.777344 15.863281 30.84375 15.519531 30.84375 C 15.101562 30.84375 14.730469 30.757812 14.40625 30.578125 C 14.082031 30.402344 13.828125 30.148438 13.648438 29.820312 C 13.464844 29.492188 13.371094 29.105469 13.371094 28.660156 C 13.371094 28.214844 13.460938 27.828125 13.644531 27.503906 C 13.824219 27.175781 14.074219 26.925781 14.398438 26.746094 C 14.722656 26.570312 15.097656 26.480469 15.519531 26.480469 C 15.933594 26.480469 16.304688 26.566406 16.625 26.738281 C 16.945312 26.910156 17.199219 27.160156 17.378906 27.480469 C 17.558594 27.800781 17.648438 28.179688 17.648438 28.613281 C 17.648438 28.730469 17.640625 28.847656 17.628906 28.964844 M 16.144531 28.242188 C 16.144531 28.058594 16.082031 27.917969 15.960938 27.8125 C 15.84375 27.710938 15.691406 27.65625 15.511719 27.65625 C 15.328125 27.65625 15.183594 27.707031 15.066406 27.804688 C 14.949219 27.90625 14.875 28.050781 14.839844 28.242188 L 16.144531 28.242188 M 20.882812 30.792969 L 20.121094 29.722656 L 19.519531 30.792969 L 17.898438 30.792969 L 19.308594 28.582031 L 17.839844 26.535156 L 19.496094 26.535156 L 20.253906 27.605469 L 20.867188 26.535156 L 22.484375 26.535156 L 21.046875 28.703125 L 22.539062 30.792969 L 20.882812 30.792969 M 26.941406 28.109375 C 26.792969 28.375 26.570312 28.585938 26.269531 28.746094 C 25.972656 28.90625 25.605469 28.984375 25.175781 28.984375 L 24.445312 28.984375 L 24.445312 30.792969 L 22.96875 30.792969 L 22.96875 25.441406 L 25.175781 25.441406 C 25.601562 25.441406 25.964844 25.519531 26.261719 25.671875 C 26.5625 25.820312 26.785156 26.03125 26.9375 26.300781 C 27.085938 26.566406 27.164062 26.875 27.164062 27.226562 C 27.164062 27.550781 27.089844 27.84375 26.941406 28.109375 M 25.65625 27.226562 C 25.65625 26.835938 25.449219 26.640625 25.03125 26.640625 L 24.445312 26.640625 L 24.445312 27.800781 L 25.03125 27.800781 C 25.449219 27.800781 25.65625 27.609375 25.65625 27.226562 M 27.746094 27.507812 C 27.902344 27.175781 28.121094 26.925781 28.394531 26.746094 C 28.667969 26.570312 28.972656 26.480469 29.308594 26.480469 C 29.601562 26.480469 29.851562 26.539062 30.0625 26.65625 C 30.273438 26.773438 30.4375 26.929688 30.550781 27.125 L 30.550781 26.535156 L 32.027344 26.535156 L 32.027344 30.792969 L 30.550781 30.792969 L 30.550781 30.199219 C 30.4375 30.398438 30.273438 30.554688 30.058594 30.671875 C 29.84375 30.785156 29.59375 30.84375 29.308594 30.84375 C 28.972656 30.84375 28.667969 30.757812 28.394531 30.578125 C 28.121094 30.402344 27.902344 30.148438 27.746094 29.816406 C 27.585938 29.484375 27.507812 29.097656 27.507812 28.660156 C 27.507812 28.21875 27.585938 27.835938 27.746094 27.507812 M 30.328125 28.015625 C 30.179688 27.859375 30 27.78125 29.785156 27.78125 C 29.5625 27.78125 29.378906 27.855469 29.234375 28.011719 C 29.085938 28.164062 29.015625 28.382812 29.015625 28.660156 C 29.015625 28.933594 29.085938 29.148438 29.234375 29.308594 C 29.378906 29.46875 29.5625 29.546875 29.785156 29.546875 C 30 29.546875 30.179688 29.46875 30.328125 29.3125 C 30.476562 29.15625 30.550781 28.9375 30.550781 28.660156 C 30.550781 28.386719 30.476562 28.171875 30.328125 28.015625 M 32.859375 27.507812 C 33.019531 27.175781 33.234375 26.925781 33.511719 26.746094 C 33.789062 26.570312 34.09375 26.480469 34.429688 26.480469 C 34.703125 26.480469 34.945312 26.539062 35.15625 26.652344 C 35.371094 26.765625 35.539062 26.921875 35.65625 27.121094 L 35.65625 25.175781 L 37.140625 25.175781 L 37.140625 30.792969 L 35.65625 30.792969 L 35.65625 30.199219 C 35.542969 30.398438 35.378906 30.554688 35.167969 30.671875 C 34.957031 30.785156 34.710938 30.84375 34.421875 30.84375 C 34.085938 30.84375 33.78125 30.757812 33.507812 30.578125 C 33.234375 30.402344 33.019531 30.148438 32.859375 29.816406 C 32.703125 29.484375 32.621094 29.097656 32.621094 28.660156 C 32.621094 28.21875 32.703125 27.835938 32.859375 27.507812 M 35.441406 28.015625 C 35.296875 27.859375 35.113281 27.78125 34.898438 27.78125 C 34.675781 27.78125 34.492188 27.855469 34.347656 28.011719 C 34.203125 28.164062 34.128906 28.382812 34.128906 28.660156 C 34.128906 28.933594 34.203125 29.148438 34.347656 29.308594 C 34.492188 29.46875 34.675781 29.546875 34.898438 29.546875 C 35.113281 29.546875 35.296875 29.46875 35.441406 29.3125 C 35.589844 29.15625 35.664062 28.9375 35.664062 28.660156 C 35.664062 28.386719 35.589844 28.171875 35.441406 28.015625 "/>
</g>
</svg>
